<?xml version="1.0" encoding="UTF-8" standalone="no"?>
<!DOCTYPE svg PUBLIC "-//W3C//DTD SVG 1.1//EN" "http://www.w3.org/Graphics/SVG/1.1/DTD/svg11.dtd">
<svg width="100%" height="100%" viewBox="0 0 1223 201" version="1.1" xmlns="http://www.w3.org/2000/svg" xmlns:xlink="http://www.w3.org/1999/xlink" xml:space="preserve" xmlns:serif="http://www.serif.com/" style="fill-rule:evenodd;clip-rule:evenodd;stroke-linejoin:round;stroke-miterlimit:2;">
    <g transform="matrix(1,0,0,1,-88.4291,-1139.56)">
        <g transform="matrix(4.97656,0,0,4.97656,-979.686,-4402.15)">
            <g transform="matrix(50,0,0,50,214.811,1151.51)">
                <path d="M0.407,-0.304C0.393,-0.33 0.386,-0.351 0.386,-0.366C0.386,-0.381 0.392,-0.389 0.404,-0.389C0.417,-0.389 0.426,-0.38 0.433,-0.36L0.435,-0.355C0.498,-0.473 0.567,-0.563 0.642,-0.625C0.606,-0.655 0.557,-0.671 0.498,-0.671C0.425,-0.671 0.363,-0.646 0.311,-0.596C0.26,-0.547 0.234,-0.486 0.234,-0.414C0.234,-0.362 0.246,-0.324 0.27,-0.299C0.286,-0.287 0.303,-0.274 0.32,-0.262C0.325,-0.257 0.327,-0.251 0.327,-0.244C0.327,-0.225 0.318,-0.215 0.299,-0.215C0.291,-0.215 0.282,-0.218 0.273,-0.225C0.216,-0.265 0.188,-0.324 0.188,-0.401C0.188,-0.486 0.219,-0.559 0.281,-0.62C0.347,-0.685 0.432,-0.717 0.535,-0.717C0.6,-0.717 0.656,-0.701 0.703,-0.671C0.727,-0.686 0.754,-0.701 0.782,-0.717C0.792,-0.722 0.801,-0.725 0.809,-0.725C0.821,-0.725 0.827,-0.72 0.827,-0.71C0.827,-0.698 0.819,-0.688 0.802,-0.681C0.779,-0.67 0.759,-0.658 0.74,-0.644C0.776,-0.614 0.803,-0.577 0.822,-0.534C0.84,-0.494 0.848,-0.455 0.848,-0.417C0.848,-0.357 0.826,-0.304 0.782,-0.26C0.737,-0.216 0.686,-0.193 0.628,-0.193C0.591,-0.193 0.555,-0.2 0.521,-0.213C0.488,-0.126 0.44,-0.059 0.376,-0.013C0.321,0.027 0.263,0.046 0.202,0.046C0.144,0.046 0.095,0.031 0.055,-0.001C0.016,-0.032 -0.004,-0.073 -0.004,-0.123C-0.004,-0.167 0.01,-0.202 0.037,-0.227C0.059,-0.246 0.083,-0.255 0.11,-0.255C0.13,-0.255 0.147,-0.248 0.16,-0.235C0.174,-0.221 0.181,-0.206 0.181,-0.189C0.181,-0.169 0.171,-0.153 0.152,-0.141C0.133,-0.128 0.123,-0.121 0.121,-0.119C0.108,-0.107 0.102,-0.093 0.102,-0.076C0.102,-0.048 0.121,-0.034 0.159,-0.034C0.224,-0.028 0.306,-0.118 0.407,-0.304ZM0.543,-0.275C0.546,-0.275 0.552,-0.274 0.56,-0.273C0.569,-0.272 0.575,-0.271 0.579,-0.271C0.618,-0.271 0.651,-0.292 0.678,-0.333C0.704,-0.372 0.717,-0.418 0.717,-0.47C0.717,-0.512 0.706,-0.55 0.683,-0.583C0.638,-0.523 0.591,-0.42 0.543,-0.275Z" style="fill:rgb(53,184,190);fill-rule:nonzero;"/>
            </g>
            <g transform="matrix(50,0,0,50,252.696,1151.51)">
                <path d="M0.128,-0.342C0.114,-0.354 0.107,-0.368 0.107,-0.385C0.107,-0.399 0.112,-0.415 0.121,-0.433C0.136,-0.462 0.158,-0.476 0.187,-0.476C0.198,-0.476 0.207,-0.473 0.215,-0.467C0.222,-0.461 0.226,-0.452 0.226,-0.439C0.226,-0.426 0.222,-0.413 0.215,-0.397C0.231,-0.388 0.254,-0.389 0.286,-0.399C0.312,-0.408 0.331,-0.413 0.342,-0.413C0.358,-0.413 0.368,-0.406 0.371,-0.392C0.372,-0.387 0.373,-0.382 0.373,-0.377C0.373,-0.367 0.37,-0.356 0.364,-0.343C0.358,-0.331 0.352,-0.319 0.346,-0.308C0.326,-0.265 0.303,-0.216 0.279,-0.161C0.271,-0.141 0.271,-0.129 0.279,-0.124C0.289,-0.124 0.298,-0.129 0.306,-0.14C0.32,-0.153 0.338,-0.171 0.36,-0.192C0.366,-0.201 0.374,-0.205 0.385,-0.205C0.391,-0.205 0.395,-0.203 0.397,-0.2C0.402,-0.195 0.405,-0.191 0.405,-0.187C0.405,-0.183 0.399,-0.174 0.388,-0.161C0.33,-0.09 0.271,-0.041 0.21,-0.011C0.193,-0.002 0.176,0.002 0.161,0.002C0.138,0.002 0.119,-0.006 0.106,-0.023C0.092,-0.039 0.086,-0.056 0.088,-0.074C0.092,-0.112 0.123,-0.167 0.181,-0.239C0.203,-0.266 0.214,-0.288 0.214,-0.304C0.214,-0.319 0.201,-0.327 0.175,-0.327C0.11,-0.241 0.063,-0.185 0.035,-0.158C0.025,-0.148 0.015,-0.146 0.004,-0.153C-0.001,-0.156 -0.004,-0.16 -0.004,-0.165C-0.004,-0.171 -0.001,-0.175 0.004,-0.18C0.03,-0.209 0.05,-0.232 0.064,-0.25C0.089,-0.282 0.11,-0.312 0.128,-0.342Z" style="fill:rgb(53,184,190);fill-rule:nonzero;"/>
            </g>
            <g transform="matrix(50,0,0,50,269.847,1151.51)">
                <path d="M0.437,-0.205C0.447,-0.201 0.452,-0.197 0.452,-0.191C0.452,-0.184 0.447,-0.175 0.437,-0.164C0.407,-0.123 0.371,-0.101 0.33,-0.098C0.317,-0.097 0.306,-0.099 0.297,-0.103C0.243,-0.033 0.184,0.002 0.119,0.002C0.088,0.002 0.064,-0.008 0.045,-0.028C0.027,-0.048 0.018,-0.075 0.018,-0.109C0.018,-0.123 0.02,-0.139 0.024,-0.154C0.021,-0.152 0.018,-0.151 0.015,-0.151C0.002,-0.151 -0.004,-0.157 -0.004,-0.169C-0.004,-0.175 -0.001,-0.181 0.004,-0.186C0.033,-0.224 0.065,-0.26 0.1,-0.297C0.153,-0.354 0.2,-0.392 0.241,-0.411C0.264,-0.422 0.287,-0.427 0.309,-0.427C0.35,-0.427 0.377,-0.407 0.391,-0.365C0.394,-0.356 0.396,-0.345 0.396,-0.333C0.396,-0.292 0.381,-0.242 0.35,-0.182C0.358,-0.178 0.361,-0.17 0.361,-0.157C0.382,-0.162 0.398,-0.175 0.41,-0.196C0.419,-0.205 0.428,-0.208 0.437,-0.205ZM0.181,-0.09C0.185,-0.088 0.189,-0.087 0.193,-0.087C0.213,-0.087 0.23,-0.104 0.245,-0.139C0.237,-0.153 0.233,-0.167 0.233,-0.181C0.233,-0.19 0.235,-0.198 0.238,-0.205C0.246,-0.225 0.265,-0.232 0.297,-0.227C0.32,-0.272 0.332,-0.306 0.332,-0.328C0.332,-0.345 0.324,-0.354 0.308,-0.354C0.283,-0.354 0.251,-0.316 0.21,-0.24C0.178,-0.184 0.162,-0.144 0.162,-0.122C0.162,-0.106 0.168,-0.095 0.181,-0.09Z" style="fill:rgb(53,184,190);fill-rule:nonzero;"/>
            </g>
            <g transform="matrix(50,0,0,50,289.538,1151.51)">
                <path d="M0.162,-0.362C0.143,-0.362 0.133,-0.37 0.133,-0.385C0.133,-0.39 0.135,-0.395 0.138,-0.401C0.145,-0.413 0.168,-0.418 0.208,-0.418C0.215,-0.427 0.221,-0.433 0.224,-0.438C0.228,-0.446 0.251,-0.483 0.291,-0.55C0.298,-0.561 0.305,-0.566 0.313,-0.566C0.32,-0.566 0.329,-0.561 0.338,-0.55C0.346,-0.541 0.354,-0.532 0.361,-0.523C0.37,-0.511 0.374,-0.498 0.374,-0.485C0.374,-0.47 0.37,-0.454 0.361,-0.436C0.361,-0.436 0.358,-0.43 0.351,-0.417C0.402,-0.417 0.427,-0.411 0.427,-0.401C0.427,-0.398 0.426,-0.394 0.423,-0.389C0.412,-0.374 0.407,-0.366 0.407,-0.366C0.402,-0.362 0.394,-0.36 0.38,-0.36C0.376,-0.36 0.367,-0.361 0.354,-0.361C0.341,-0.362 0.331,-0.362 0.322,-0.362C0.299,-0.322 0.285,-0.297 0.279,-0.288C0.279,-0.289 0.282,-0.296 0.289,-0.308C0.289,-0.308 0.277,-0.284 0.252,-0.236C0.227,-0.188 0.213,-0.161 0.211,-0.153C0.203,-0.133 0.204,-0.12 0.213,-0.114C0.216,-0.113 0.222,-0.113 0.231,-0.116C0.24,-0.118 0.247,-0.122 0.252,-0.127C0.275,-0.145 0.302,-0.167 0.332,-0.193C0.339,-0.201 0.348,-0.205 0.358,-0.205C0.37,-0.205 0.377,-0.199 0.377,-0.188C0.377,-0.182 0.371,-0.173 0.36,-0.161C0.336,-0.132 0.299,-0.099 0.249,-0.063C0.19,-0.021 0.146,0 0.117,0C0.093,0 0.074,-0.009 0.06,-0.026C0.047,-0.041 0.041,-0.057 0.044,-0.074C0.049,-0.116 0.077,-0.18 0.127,-0.266C0.103,-0.236 0.074,-0.2 0.038,-0.159C0.027,-0.147 0.016,-0.145 0.005,-0.153C-0.005,-0.16 -0.005,-0.169 0.005,-0.181C0.048,-0.229 0.1,-0.289 0.162,-0.362Z" style="fill:rgb(53,184,190);fill-rule:nonzero;"/>
            </g>
            <g transform="matrix(50,0,0,50,305.056,1151.51)">
                <path d="M0.172,-0.123C0.169,-0.09 0.181,-0.073 0.209,-0.073C0.226,-0.072 0.247,-0.079 0.273,-0.094C0.297,-0.109 0.317,-0.125 0.335,-0.143C0.358,-0.168 0.373,-0.183 0.382,-0.188C0.39,-0.193 0.395,-0.196 0.397,-0.196C0.401,-0.196 0.407,-0.194 0.415,-0.189C0.418,-0.186 0.419,-0.183 0.419,-0.18C0.419,-0.166 0.398,-0.14 0.356,-0.101C0.278,-0.029 0.206,0.007 0.142,0.007C0.122,0.007 0.104,0.003 0.089,-0.005C0.068,-0.017 0.052,-0.035 0.041,-0.059C0.031,-0.079 0.028,-0.096 0.03,-0.11C0.032,-0.125 0.034,-0.135 0.035,-0.14C0.039,-0.149 0.046,-0.158 0.055,-0.166C0.04,-0.15 0.028,-0.142 0.022,-0.142C0.016,-0.142 0.011,-0.145 0.007,-0.151C0.002,-0.156 0,-0.162 0,-0.167C0,-0.174 0.006,-0.182 0.018,-0.191C0.025,-0.195 0.045,-0.218 0.078,-0.258C0.112,-0.298 0.146,-0.331 0.181,-0.357C0.231,-0.394 0.275,-0.413 0.314,-0.413C0.339,-0.413 0.36,-0.405 0.375,-0.39C0.392,-0.373 0.4,-0.355 0.4,-0.336C0.4,-0.307 0.382,-0.273 0.346,-0.234C0.296,-0.181 0.238,-0.144 0.172,-0.123ZM0.234,-0.215C0.244,-0.215 0.264,-0.232 0.296,-0.265C0.315,-0.285 0.324,-0.306 0.324,-0.328C0.324,-0.337 0.32,-0.342 0.313,-0.342C0.302,-0.342 0.281,-0.322 0.251,-0.283C0.231,-0.258 0.221,-0.24 0.221,-0.227C0.221,-0.219 0.225,-0.215 0.234,-0.215Z" style="fill:rgb(53,184,190);fill-rule:nonzero;"/>
            </g>
            <g transform="matrix(50,0,0,50,323.477,1151.51)">
                <path d="M0.015,-0.156C0.002,-0.165 -0.001,-0.175 0.006,-0.186C0.018,-0.2 0.044,-0.231 0.082,-0.279C0.101,-0.307 0.121,-0.335 0.141,-0.364C0.163,-0.395 0.18,-0.413 0.192,-0.416C0.209,-0.42 0.218,-0.422 0.221,-0.422C0.227,-0.422 0.233,-0.418 0.239,-0.411C0.265,-0.38 0.279,-0.357 0.279,-0.343C0.279,-0.327 0.266,-0.291 0.241,-0.237C0.218,-0.186 0.207,-0.153 0.207,-0.139C0.207,-0.132 0.21,-0.129 0.215,-0.129C0.222,-0.129 0.237,-0.141 0.26,-0.166C0.289,-0.197 0.309,-0.212 0.32,-0.212C0.333,-0.212 0.339,-0.207 0.339,-0.195C0.339,-0.189 0.336,-0.18 0.329,-0.169C0.314,-0.142 0.279,-0.108 0.227,-0.066C0.17,-0.021 0.128,0.002 0.101,0.002C0.083,0.002 0.068,-0.005 0.056,-0.02C0.047,-0.031 0.043,-0.043 0.043,-0.054C0.043,-0.076 0.048,-0.101 0.06,-0.129C0.066,-0.144 0.087,-0.188 0.123,-0.261C0.098,-0.231 0.071,-0.198 0.04,-0.163C0.034,-0.159 0.026,-0.157 0.015,-0.156ZM0.387,-0.629C0.398,-0.621 0.404,-0.607 0.404,-0.587C0.404,-0.557 0.394,-0.53 0.374,-0.508C0.354,-0.485 0.33,-0.474 0.301,-0.474C0.284,-0.474 0.269,-0.478 0.257,-0.487C0.245,-0.496 0.239,-0.511 0.239,-0.532C0.239,-0.558 0.248,-0.583 0.268,-0.609C0.286,-0.632 0.309,-0.644 0.337,-0.644C0.356,-0.644 0.373,-0.639 0.387,-0.629Z" style="fill:rgb(53,184,190);fill-rule:nonzero;"/>
            </g>
            <g transform="matrix(50,0,0,50,337.451,1151.51)">
                <path d="M0.009,-0.144C0.002,-0.144 -0.002,-0.147 -0.002,-0.152C-0.002,-0.156 0.001,-0.164 0.007,-0.173C0.039,-0.212 0.078,-0.262 0.124,-0.323C0.169,-0.392 0.199,-0.425 0.215,-0.421C0.226,-0.419 0.237,-0.412 0.248,-0.4C0.259,-0.389 0.266,-0.377 0.269,-0.367C0.274,-0.343 0.274,-0.322 0.269,-0.303C0.266,-0.292 0.254,-0.273 0.235,-0.244C0.256,-0.265 0.276,-0.283 0.294,-0.299C0.337,-0.339 0.369,-0.364 0.389,-0.377C0.403,-0.385 0.416,-0.394 0.43,-0.402C0.444,-0.41 0.456,-0.415 0.466,-0.415C0.483,-0.415 0.498,-0.404 0.514,-0.384C0.516,-0.38 0.517,-0.376 0.517,-0.37C0.517,-0.356 0.503,-0.321 0.475,-0.267C0.435,-0.191 0.415,-0.146 0.415,-0.132C0.415,-0.126 0.417,-0.123 0.422,-0.123C0.438,-0.123 0.462,-0.138 0.495,-0.166C0.495,-0.167 0.502,-0.175 0.515,-0.19C0.523,-0.2 0.53,-0.205 0.535,-0.205C0.544,-0.205 0.548,-0.199 0.548,-0.186C0.548,-0.175 0.541,-0.162 0.526,-0.145C0.511,-0.129 0.485,-0.105 0.449,-0.074C0.408,-0.039 0.38,-0.019 0.365,-0.012C0.35,-0.006 0.335,-0.003 0.319,-0.003C0.283,-0.003 0.264,-0.016 0.26,-0.044C0.255,-0.07 0.283,-0.139 0.342,-0.25C0.345,-0.254 0.346,-0.257 0.346,-0.26C0.346,-0.263 0.344,-0.265 0.339,-0.265C0.329,-0.265 0.318,-0.259 0.306,-0.247C0.294,-0.235 0.272,-0.21 0.239,-0.172C0.201,-0.127 0.174,-0.095 0.16,-0.074C0.145,-0.054 0.127,-0.036 0.105,-0.02C0.083,-0.005 0.064,0.003 0.048,0.003C0.026,0.003 0.015,-0.008 0.015,-0.031C0.015,-0.041 0.02,-0.054 0.03,-0.07C0.045,-0.095 0.053,-0.108 0.054,-0.11C0.064,-0.132 0.091,-0.185 0.133,-0.27C0.063,-0.186 0.021,-0.144 0.009,-0.144Z" style="fill:rgb(53,184,190);fill-rule:nonzero;"/>
            </g>
            <g transform="matrix(50,0,0,50,373.93,1151.51)">
                <path d="M0.693,-0.712C0.738,-0.737 0.765,-0.751 0.774,-0.753C0.797,-0.76 0.812,-0.761 0.819,-0.756C0.822,-0.753 0.824,-0.75 0.824,-0.747C0.824,-0.74 0.815,-0.73 0.799,-0.72C0.792,-0.715 0.78,-0.708 0.762,-0.696C0.804,-0.681 0.84,-0.652 0.869,-0.609C0.881,-0.593 0.887,-0.57 0.887,-0.543C0.887,-0.502 0.878,-0.47 0.86,-0.447C0.838,-0.419 0.809,-0.396 0.774,-0.378C0.795,-0.358 0.809,-0.34 0.816,-0.323C0.824,-0.304 0.828,-0.282 0.828,-0.259C0.828,-0.219 0.817,-0.175 0.794,-0.124C0.778,-0.087 0.748,-0.057 0.706,-0.033C0.664,-0.008 0.621,0.004 0.579,0.004C0.547,0.004 0.521,-0.004 0.5,-0.019C0.461,-0.047 0.438,-0.078 0.429,-0.113C0.383,-0.057 0.336,-0.019 0.287,-0.001C0.261,0.009 0.227,0.014 0.187,0.014C0.158,0.014 0.13,0.008 0.102,-0.005C0.071,-0.018 0.048,-0.035 0.033,-0.056C0.009,-0.089 -0.003,-0.122 -0.003,-0.156C-0.003,-0.204 0.016,-0.241 0.054,-0.268C0.069,-0.279 0.085,-0.284 0.103,-0.284C0.122,-0.284 0.138,-0.278 0.152,-0.265C0.166,-0.252 0.172,-0.236 0.172,-0.218C0.172,-0.195 0.164,-0.178 0.147,-0.167C0.116,-0.147 0.101,-0.128 0.101,-0.111C0.101,-0.103 0.103,-0.096 0.109,-0.088C0.118,-0.074 0.133,-0.067 0.155,-0.067C0.172,-0.067 0.19,-0.072 0.209,-0.083C0.244,-0.102 0.275,-0.129 0.301,-0.165C0.318,-0.188 0.344,-0.231 0.38,-0.297C0.423,-0.374 0.462,-0.439 0.497,-0.492C0.543,-0.561 0.587,-0.618 0.632,-0.661C0.615,-0.664 0.597,-0.666 0.58,-0.666C0.539,-0.666 0.5,-0.658 0.461,-0.641C0.401,-0.615 0.357,-0.587 0.328,-0.555C0.304,-0.528 0.287,-0.495 0.279,-0.455C0.278,-0.446 0.277,-0.437 0.277,-0.428C0.277,-0.39 0.295,-0.365 0.331,-0.355C0.351,-0.349 0.36,-0.34 0.36,-0.328C0.36,-0.309 0.351,-0.297 0.334,-0.291C0.329,-0.289 0.324,-0.289 0.318,-0.289C0.293,-0.289 0.272,-0.3 0.255,-0.323C0.236,-0.35 0.226,-0.38 0.226,-0.413C0.226,-0.431 0.232,-0.462 0.243,-0.506C0.255,-0.549 0.29,-0.593 0.35,-0.638C0.423,-0.692 0.503,-0.72 0.588,-0.72C0.627,-0.72 0.662,-0.717 0.693,-0.712ZM0.698,-0.641C0.685,-0.627 0.671,-0.612 0.657,-0.594C0.638,-0.57 0.618,-0.527 0.598,-0.465C0.57,-0.382 0.547,-0.321 0.53,-0.283C0.552,-0.293 0.569,-0.3 0.581,-0.303C0.586,-0.304 0.591,-0.305 0.595,-0.305C0.609,-0.305 0.615,-0.299 0.615,-0.286C0.615,-0.273 0.606,-0.265 0.586,-0.261C0.563,-0.257 0.536,-0.241 0.505,-0.212C0.487,-0.195 0.477,-0.173 0.477,-0.146C0.477,-0.132 0.482,-0.12 0.49,-0.113C0.509,-0.094 0.529,-0.085 0.55,-0.085C0.573,-0.085 0.597,-0.098 0.623,-0.124C0.635,-0.138 0.648,-0.158 0.661,-0.184C0.676,-0.218 0.683,-0.25 0.683,-0.279C0.683,-0.285 0.683,-0.292 0.681,-0.299C0.677,-0.329 0.668,-0.348 0.653,-0.355C0.653,-0.355 0.64,-0.358 0.613,-0.362C0.596,-0.362 0.587,-0.371 0.587,-0.39C0.587,-0.41 0.599,-0.421 0.623,-0.426C0.643,-0.426 0.662,-0.427 0.681,-0.428C0.72,-0.433 0.747,-0.466 0.762,-0.526C0.764,-0.534 0.765,-0.541 0.765,-0.549C0.765,-0.583 0.752,-0.609 0.725,-0.626C0.717,-0.631 0.708,-0.636 0.698,-0.641Z" style="fill:rgb(53,184,190);fill-rule:nonzero;"/>
            </g>
            <g transform="matrix(50,0,0,50,416.126,1151.51)">
                <path d="M0.389,-0.399C0.401,-0.423 0.407,-0.436 0.407,-0.436C0.417,-0.457 0.428,-0.469 0.442,-0.473C0.452,-0.475 0.467,-0.466 0.487,-0.444C0.504,-0.426 0.512,-0.409 0.512,-0.393C0.512,-0.381 0.505,-0.362 0.491,-0.336C0.475,-0.305 0.451,-0.259 0.419,-0.199C0.407,-0.176 0.401,-0.157 0.401,-0.142C0.401,-0.131 0.403,-0.125 0.407,-0.123C0.412,-0.12 0.425,-0.128 0.447,-0.146C0.467,-0.162 0.483,-0.178 0.495,-0.191C0.503,-0.2 0.507,-0.204 0.509,-0.204C0.513,-0.204 0.517,-0.201 0.522,-0.195C0.527,-0.189 0.529,-0.184 0.529,-0.18C0.529,-0.174 0.525,-0.167 0.517,-0.159C0.509,-0.151 0.501,-0.142 0.493,-0.133C0.48,-0.119 0.457,-0.098 0.424,-0.07C0.391,-0.042 0.369,-0.025 0.358,-0.017C0.337,-0.005 0.317,0.002 0.298,0.002C0.283,0.002 0.269,-0.003 0.256,-0.011C0.244,-0.02 0.238,-0.034 0.238,-0.052C0.238,-0.061 0.239,-0.071 0.242,-0.082C0.208,-0.053 0.18,-0.033 0.158,-0.02C0.136,-0.007 0.113,-0.001 0.091,-0.001C0.068,-0.001 0.05,-0.008 0.035,-0.022C0.021,-0.036 0.014,-0.054 0.014,-0.075C0.014,-0.097 0.019,-0.12 0.031,-0.143C0.018,-0.142 0.009,-0.143 0.005,-0.147C0.002,-0.15 0,-0.159 0,-0.175C0,-0.179 0.005,-0.185 0.016,-0.195C0.026,-0.205 0.037,-0.214 0.046,-0.223C0.061,-0.236 0.084,-0.26 0.115,-0.297C0.134,-0.323 0.151,-0.344 0.165,-0.358C0.192,-0.382 0.223,-0.399 0.258,-0.409C0.273,-0.414 0.291,-0.417 0.309,-0.417C0.343,-0.417 0.369,-0.411 0.389,-0.399ZM0.196,-0.119C0.209,-0.119 0.227,-0.131 0.251,-0.156C0.27,-0.175 0.285,-0.194 0.298,-0.213C0.327,-0.257 0.341,-0.291 0.341,-0.313C0.341,-0.328 0.335,-0.335 0.323,-0.335C0.307,-0.335 0.276,-0.304 0.231,-0.241C0.197,-0.193 0.18,-0.159 0.18,-0.139C0.18,-0.126 0.185,-0.119 0.196,-0.119Z" style="fill:rgb(53,184,190);fill-rule:nonzero;"/>
            </g>
            <g transform="matrix(50,0,0,50,440.083,1151.51)">
                <path d="M0.128,-0.342C0.114,-0.354 0.107,-0.368 0.107,-0.385C0.107,-0.399 0.112,-0.415 0.121,-0.433C0.136,-0.462 0.158,-0.476 0.187,-0.476C0.198,-0.476 0.207,-0.473 0.215,-0.467C0.222,-0.461 0.226,-0.452 0.226,-0.439C0.226,-0.426 0.222,-0.413 0.215,-0.397C0.231,-0.388 0.254,-0.389 0.286,-0.399C0.312,-0.408 0.331,-0.413 0.342,-0.413C0.358,-0.413 0.368,-0.406 0.371,-0.392C0.372,-0.387 0.373,-0.382 0.373,-0.377C0.373,-0.367 0.37,-0.356 0.364,-0.343C0.358,-0.331 0.352,-0.319 0.346,-0.308C0.326,-0.265 0.303,-0.216 0.279,-0.161C0.271,-0.141 0.271,-0.129 0.279,-0.124C0.289,-0.124 0.298,-0.129 0.306,-0.14C0.32,-0.153 0.338,-0.171 0.36,-0.192C0.366,-0.201 0.374,-0.205 0.385,-0.205C0.391,-0.205 0.395,-0.203 0.397,-0.2C0.402,-0.195 0.405,-0.191 0.405,-0.187C0.405,-0.183 0.399,-0.174 0.388,-0.161C0.33,-0.09 0.271,-0.041 0.21,-0.011C0.193,-0.002 0.176,0.002 0.161,0.002C0.138,0.002 0.119,-0.006 0.106,-0.023C0.092,-0.039 0.086,-0.056 0.088,-0.074C0.092,-0.112 0.123,-0.167 0.181,-0.239C0.203,-0.266 0.214,-0.288 0.214,-0.304C0.214,-0.319 0.201,-0.327 0.175,-0.327C0.11,-0.241 0.063,-0.185 0.035,-0.158C0.025,-0.148 0.015,-0.146 0.004,-0.153C-0.001,-0.156 -0.004,-0.16 -0.004,-0.165C-0.004,-0.171 -0.001,-0.175 0.004,-0.18C0.03,-0.209 0.05,-0.232 0.064,-0.25C0.089,-0.282 0.11,-0.312 0.128,-0.342Z" style="fill:rgb(53,184,190);fill-rule:nonzero;"/>
            </g>
        </g>
    </g>
</svg>
